<svg id="appstore" xmlns="http://www.w3.org/2000/svg" width="238.996" height="79.666" viewBox="0 0 238.996 79.666">
  <path id="Path_100" data-name="Path 100" d="M.125,20.912c0-6.5,0-9.744,1.061-12.306A13.941,13.941,0,0,1,8.731,1.061C11.293,0,14.541,0,21.037,0H218.21c6.5,0,9.743,0,12.306,1.061a13.94,13.94,0,0,1,7.544,7.545c1.062,2.562,1.062,5.81,1.062,12.306V58.753c0,6.5,0,9.744-1.062,12.306a13.94,13.94,0,0,1-7.544,7.545c-2.562,1.061-5.81,1.061-12.307,1.061H21.037c-6.5,0-9.744,0-12.306-1.061a13.941,13.941,0,0,1-7.545-7.545C.125,68.5.125,65.249.125,58.753Z" transform="translate(-0.125)"/>
  <path id="Path_101" data-name="Path 101" d="M89.082,20.641V25.2h-2.86V28.2h2.86V38.363c0,3.472,1.571,4.861,5.522,4.861a11.469,11.469,0,0,0,1.934-.182V40.083a11.694,11.694,0,0,1-1.356.083c-1.769,0-2.546-.827-2.546-2.711V28.2h3.9V25.2h-3.9V20.641Z" transform="translate(73.288 17.6)" fill="#fff"/>
  <path id="Path_102" data-name="Path 102" d="M101.134,41.57c5.257,0,8.48-3.521,8.48-9.357,0-5.8-3.24-9.341-8.48-9.341-5.257,0-8.5,3.538-8.5,9.341C92.636,38.048,95.86,41.57,101.134,41.57Zm0-3.158c-3.091,0-4.827-2.265-4.827-6.2,0-3.9,1.736-6.183,4.827-6.183,3.075,0,4.827,2.281,4.827,6.183C105.961,36.13,104.209,38.412,101.134,38.412Z" transform="translate(78.757 19.502)" fill="#fff"/>
  <path id="Path_103" data-name="Path 103" d="M103.289,41.2h3.555V30.569c0-2.529,1.9-4.232,4.595-4.232a9.775,9.775,0,0,1,1.984.215v-3.5a7.511,7.511,0,0,0-1.588-.149c-2.347,0-4.346,1.289-4.86,3.058h-.265V23.2h-3.422Z" transform="translate(87.841 19.525)" fill="#fff"/>
  <path id="Path_104" data-name="Path 104" d="M117.335,25.9c2.629,0,4.348,1.835,4.43,4.662h-9.093C112.87,27.749,114.706,25.9,117.335,25.9Zm4.413,10.465c-.661,1.405-2.132,2.182-4.282,2.182-2.844,0-4.678-2-4.795-5.158v-.2h12.713v-1.24c0-5.654-3.025-9.076-8.033-9.076-5.076,0-8.3,3.654-8.3,9.407s3.157,9.291,8.317,9.291c4.115,0,6.992-1.984,7.8-5.208Z" transform="translate(92.755 19.502)" fill="#fff"/>
  <path id="Path_105" data-name="Path 105" d="M75.184,37.784c.274,4.421,3.958,7.248,9.441,7.248,5.86,0,9.527-2.964,9.527-7.694,0-3.718-2.091-5.774-7.162-6.957l-2.725-.668c-3.221-.754-4.524-1.765-4.524-3.53,0-2.228,2.022-3.684,5.055-3.684,2.879,0,4.866,1.422,5.226,3.7h3.735c-.223-4.164-3.89-7.094-8.91-7.094-5.4,0-9,2.93-9,7.334,0,3.633,2.039,5.792,6.511,6.837l3.187.771c3.273.771,4.712,1.9,4.712,3.787,0,2.193-2.262,3.787-5.346,3.787-3.307,0-5.6-1.491-5.929-3.838Z" transform="translate(63.876 16.292)" fill="#fff"/>
  <path id="Path_106" data-name="Path 106" d="M59.609,22.9a6.258,6.258,0,0,0-5.654,3.273H53.69V23.2H50.268V47.184h3.554V38.472H54.1A5.871,5.871,0,0,0,59.642,41.5c4.546,0,7.439-3.588,7.439-9.308S64.188,22.9,59.609,22.9ZM58.6,38.306c-2.976,0-4.844-2.348-4.844-6.1,0-3.769,1.868-6.117,4.861-6.117,3.009,0,4.811,2.3,4.811,6.1C63.428,36.008,61.626,38.306,58.6,38.306Z" transform="translate(42.631 19.525)" fill="#fff"/>
  <path id="Path_107" data-name="Path 107" d="M70.356,22.9A6.258,6.258,0,0,0,64.7,26.172h-.264V23.2H61.015V47.184h3.555V38.472h.281A5.871,5.871,0,0,0,70.389,41.5c4.546,0,7.439-3.588,7.439-9.308S74.935,22.9,70.356,22.9ZM69.347,38.306c-2.976,0-4.844-2.348-4.844-6.1,0-3.769,1.868-6.117,4.86-6.117,3.009,0,4.811,2.3,4.811,6.1C74.174,36.008,72.373,38.306,69.347,38.306Z" transform="translate(51.795 19.525)" fill="#fff"/>
  <path id="Path_108" data-name="Path 108" d="M55.067,44.157h4.078L50.218,19.431H46.089L37.161,44.157H41.1l2.279-6.563h9.424ZM47.956,23.92h.291l3.581,10.452H44.358Z" transform="translate(31.455 16.568)" fill="#fff"/>
  <g id="Group_14116" data-name="Group 14116">
    <path id="Path_109" data-name="Path 109" d="M38.45,9.364V21.292h4.307c3.554,0,5.613-2.19,5.613-6,0-3.753-2.075-5.927-5.613-5.927ZM40.3,11.05H42.55c2.472,0,3.935,1.571,3.935,4.265,0,2.736-1.438,4.29-3.935,4.29H40.3Z" transform="translate(32.554 7.985)" fill="#fff"/>
    <path id="Path_110" data-name="Path 110" d="M49.162,20.2c2.629,0,4.241-1.761,4.241-4.679,0-2.9-1.62-4.67-4.241-4.67s-4.249,1.769-4.249,4.67C44.913,18.438,46.525,20.2,49.162,20.2Zm0-1.579c-1.546,0-2.414-1.132-2.414-3.1,0-1.951.868-3.091,2.414-3.091s2.414,1.141,2.414,3.091S50.7,18.62,49.162,18.62Z" transform="translate(38.065 9.251)" fill="#fff"/>
    <path id="Path_111" data-name="Path 111" d="M62.645,10.944H60.868l-1.6,6.869h-.141l-1.852-6.869h-1.7l-1.852,6.869h-.132l-1.612-6.869h-1.8l2.48,9h1.827l1.852-6.629h.14l1.86,6.629h1.843Z" transform="translate(42.549 9.332)" fill="#fff"/>
    <path id="Path_112" data-name="Path 112" d="M58.009,20.025h1.777V14.76a2.064,2.064,0,0,1,2.149-2.281c1.314,0,1.943.719,1.943,2.166v5.381h1.777V14.2c0-2.141-1.108-3.348-3.116-3.348a2.7,2.7,0,0,0-2.686,1.6H59.72v-1.43H58.009Z" transform="translate(49.232 9.251)" fill="#fff"/>
    <path id="Path_113" data-name="Path 113" d="M63.647,21.562h1.777V9.047H63.647Z" transform="translate(54.039 7.714)" fill="#fff"/>
    <path id="Path_114" data-name="Path 114" d="M70.169,20.2c2.629,0,4.24-1.761,4.24-4.679,0-2.9-1.62-4.67-4.24-4.67s-4.249,1.769-4.249,4.67C65.921,18.438,67.532,20.2,70.169,20.2Zm0-1.579c-1.546,0-2.414-1.132-2.414-3.1,0-1.951.868-3.091,2.414-3.091s2.414,1.141,2.414,3.091S71.707,18.62,70.169,18.62Z" transform="translate(55.978 9.251)" fill="#fff"/>
    <path id="Path_115" data-name="Path 115" d="M74.951,18.678c-.967,0-1.67-.471-1.67-1.281,0-.794.562-1.215,1.8-1.3l2.2-.14v.752A2.122,2.122,0,0,1,74.951,18.678Zm-.455,1.5a3.029,3.029,0,0,0,2.7-1.413h.141v1.265h1.711v-6.15c0-1.9-1.273-3.025-3.53-3.025-2.042,0-3.5.992-3.679,2.538h1.719c.2-.636.884-1,1.876-1,1.215,0,1.843.537,1.843,1.488v.777l-2.438.141c-2.141.132-3.348,1.066-3.348,2.686A2.719,2.719,0,0,0,74.5,20.174Z" transform="translate(60.732 9.251)" fill="#fff"/>
    <path id="Path_116" data-name="Path 116" d="M80.549,21.711a3.125,3.125,0,0,0,2.827-1.571h.141v1.422h1.7V9.047H83.442V13.99h-.132a2.968,2.968,0,0,0-2.761-1.579c-2.273,0-3.736,1.8-3.736,4.645S78.259,21.711,80.549,21.711Zm.5-7.7c1.488,0,2.422,1.182,2.422,3.058s-.926,3.05-2.422,3.05-2.405-1.149-2.405-3.058C78.647,15.164,79.557,14.007,81.053,14.007Z" transform="translate(65.265 7.714)" fill="#fff"/>
    <path id="Path_117" data-name="Path 117" d="M89.526,20.2c2.629,0,4.24-1.761,4.24-4.679,0-2.9-1.62-4.67-4.24-4.67s-4.249,1.769-4.249,4.67C85.277,18.438,86.889,20.2,89.526,20.2Zm0-1.579c-1.546,0-2.414-1.132-2.414-3.1,0-1.951.868-3.091,2.414-3.091s2.414,1.141,2.414,3.091S91.063,18.62,89.526,18.62Z" transform="translate(72.483 9.251)" fill="#fff"/>
    <path id="Path_118" data-name="Path 118" d="M91.129,20.025h1.777V14.76a2.065,2.065,0,0,1,2.149-2.281c1.314,0,1.943.719,1.943,2.166v5.381h1.777V14.2c0-2.141-1.108-3.348-3.116-3.348a2.7,2.7,0,0,0-2.687,1.6H92.84v-1.43H91.129Z" transform="translate(77.472 9.251)" fill="#fff"/>
    <path id="Path_119" data-name="Path 119" d="M100.332,9.734v2.281H98.9v1.5h1.43V18.6c0,1.736.786,2.43,2.761,2.43a5.739,5.739,0,0,0,.967-.091v-1.48a5.862,5.862,0,0,1-.678.041c-.884,0-1.273-.413-1.273-1.356V13.512h1.951v-1.5h-1.951V9.734Z" transform="translate(84.1 8.3)" fill="#fff"/>
    <path id="Path_120" data-name="Path 120" d="M102.974,21.562h1.777V16.3a2.1,2.1,0,0,1,2.264-2.281c1.258,0,1.927.727,1.927,2.166v5.373h1.777V15.751c0-2.141-1.182-3.356-3.1-3.356a2.77,2.77,0,0,0-2.744,1.612h-.141V9.047h-1.76Z" transform="translate(87.573 7.714)" fill="#fff"/>
    <path id="Path_121" data-name="Path 121" d="M112.522,12.363a2.173,2.173,0,0,1,2.216,2.331h-4.546A2.3,2.3,0,0,1,112.522,12.363Zm2.207,5.232a2.159,2.159,0,0,1-2.142,1.091,2.377,2.377,0,0,1-2.4-2.579v-.1h6.357v-.62c0-2.827-1.514-4.538-4.018-4.538-2.536,0-4.15,1.827-4.15,4.7s1.58,4.645,4.159,4.645c2.058,0,3.5-.992,3.9-2.6Z" transform="translate(92.181 9.251)" fill="#fff"/>
  </g>
  <path id="Path_122" data-name="Path 122" d="M40.315,27.624a9.935,9.935,0,0,1,4.693-8.269,10.214,10.214,0,0,0-7.949-4.3c-3.344-.351-6.587,2-8.291,2-1.737,0-4.361-1.966-7.187-1.908a10.673,10.673,0,0,0-8.908,5.433c-3.852,6.669-.979,16.47,2.711,21.86,1.846,2.64,4,5.588,6.827,5.484,2.763-.115,3.794-1.762,7.129-1.762,3.3,0,4.272,1.762,7.152,1.7,2.964-.048,4.832-2.651,6.613-5.316a21.825,21.825,0,0,0,3.024-6.159A9.609,9.609,0,0,1,40.315,27.624Z" transform="translate(9.015 12.808)" fill="#fff"/>
  <path id="Path_123" data-name="Path 123" d="M26.791,16.327a9.7,9.7,0,0,0,2.22-6.952,9.873,9.873,0,0,0-6.388,3.305,9.317,9.317,0,0,0-2.278,6.695A8.26,8.26,0,0,0,26.791,16.327Z" transform="translate(17.1 7.994)" fill="#fff"/>
</svg>
