<svg xmlns="http://www.w3.org/2000/svg" width="55.991" height="49.065" viewBox="0 0 55.991 49.065">
  <g id="noun-download-5958954" transform="translate(-7.856 -13.101)">
    <path id="Path_5211" data-name="Path 5211" d="M25.444,40.506a1.524,1.524,0,1,1,2.086-2.221l6.8,6.384V15.125a1.523,1.523,0,1,1,3.046,0V44.669l6.8-6.383a1.524,1.524,0,0,1,2.086,2.221L36.894,49.3c-.029.028-.063.048-.093.072a.988.988,0,0,1-.258.168c-.04.02-.077.043-.119.059a1.454,1.454,0,0,1-.173.053c-.036.01-.069.023-.106.03a1.458,1.458,0,0,1-.589,0c-.034-.007-.065-.019-.1-.028a1.492,1.492,0,0,1-.182-.057c-.038-.015-.073-.036-.109-.055a1.46,1.46,0,0,1-.148-.081c-.039-.025-.073-.056-.11-.085s-.07-.049-.1-.079Zm36.379-2.582A1.524,1.524,0,0,0,60.3,39.448V53.934a4.69,4.69,0,0,1-4.684,4.684H16.088A4.69,4.69,0,0,1,11.4,53.934V39.448a1.524,1.524,0,1,0-3.048,0V53.934a7.741,7.741,0,0,0,7.732,7.732H55.615a7.741,7.741,0,0,0,7.732-7.732V39.448A1.524,1.524,0,0,0,61.823,37.924Z" fill="#404040"/>
    <path id="Path_5211_-_Outline" data-name="Path 5211 - Outline" d="M55.615,62.166H16.088a8.241,8.241,0,0,1-8.232-8.232V39.448a2.024,2.024,0,1,1,4.048,0V53.934a4.189,4.189,0,0,0,4.184,4.184H55.615A4.189,4.189,0,0,0,59.8,53.934V39.448a2.024,2.024,0,1,1,4.048,0V53.934A8.242,8.242,0,0,1,55.615,62.166ZM9.88,38.424a1.025,1.025,0,0,0-1.024,1.024V53.934a7.24,7.24,0,0,0,7.232,7.232H55.615a7.24,7.24,0,0,0,7.232-7.232V39.448a1.024,1.024,0,1,0-2.048,0V53.934a5.19,5.19,0,0,1-5.185,5.184H16.088A5.19,5.19,0,0,1,10.9,53.934V39.448A1.025,1.025,0,0,0,9.88,38.424ZM35.851,50.212a2.029,2.029,0,0,1-.391-.04.994.994,0,0,1-.114-.031l-.015,0-.013,0a1.848,1.848,0,0,1-.228-.073A1.171,1.171,0,0,1,34.964,50l-.023-.012-.008,0a1.794,1.794,0,0,1-.186-.1,1.3,1.3,0,0,1-.12-.09l-.024-.02-.005,0-.019-.014a1.08,1.08,0,0,1-.112-.09L25.1,40.871a2.023,2.023,0,0,1-.089-2.861,2.023,2.023,0,0,1,2.861-.089l5.956,5.593V15.125a2.023,2.023,0,1,1,4.046,0V43.513l5.956-5.592a2.024,2.024,0,0,1,2.771,2.95l-9.365,8.793a.964.964,0,0,1-.108.087l-.015.011-.024.019a1.482,1.482,0,0,1-.138.1,1.562,1.562,0,0,1-.157.088L36.747,50a1.3,1.3,0,0,1-.137.066,1.686,1.686,0,0,1-.205.066l-.023.006-.019.006a1.076,1.076,0,0,1-.121.032A2.031,2.031,0,0,1,35.851,50.212Zm-.191-1.02a.958.958,0,0,0,.383,0l.018-.006.057-.017.028-.008c.034-.009.069-.019.088-.026l.006,0,.034-.018.04-.021.031-.016c.025-.012.05-.025.062-.033s.033-.025.051-.039l.032-.026.057-.043.011-.008,9.36-8.788a1.025,1.025,0,0,0,.045-1.447,1.023,1.023,0,0,0-1.447-.045l-7.641,7.175v-30.7a1.023,1.023,0,1,0-2.046,0v30.7l-7.64-7.175a1.024,1.024,0,1,0-1.4,1.492l9.36,8.788.017.012.058.043.039.031.032.025c.021.014.054.03.088.047l.012.006.048.025.026.014a1.062,1.062,0,0,0,.11.033l.013,0,.06.018Z" fill="#557e7a"/>
  </g>
</svg>
