<svg xmlns="http://www.w3.org/2000/svg" width="151.93" height="104.666" viewBox="0 0 151.93 104.666">
  <g id="noun-flight-5240398" transform="translate(0)">
    <path id="Path_5157" data-name="Path 5157" d="M62.327,46.721c-.083.039-8.567,3.841-17.036,0A1.567,1.567,0,1,0,44,49.572a22.936,22.936,0,0,0,9.535,2.019,26.032,26.032,0,0,0,10.111-2.024,1.568,1.568,0,0,0-1.316-2.846Z" transform="translate(22.044 0.392)" fill="#1f78f2"/>
    <path id="Path_5158" data-name="Path 5158" d="M153.418,59.7c-.327-2.223-3.3-2.252-8.648-1.524l-26.507,2.549-.161,0a8.347,8.347,0,0,0-1.714.183l-17.365,1.67a24.106,24.106,0,0,0-5.732-13.1l8.291-2.851a1.567,1.567,0,0,0-1.02-2.964L90.795,47.02A20.737,20.737,0,0,0,79.02,42.145V30.351a1.566,1.566,0,1,0-3.133,0V42.145A20.74,20.74,0,0,0,64.133,47l-9.72-3.341a1.567,1.567,0,0,0-1.018,2.964l8.235,2.831a24.119,24.119,0,0,0-5.749,13.117L38.548,60.907a8.335,8.335,0,0,0-1.714-.183l-.163,0-26.505-2.55c-5.352-.728-8.319-.7-8.648,1.524-.63,4.24,18.3,9.22,27.238,10.815a8.182,8.182,0,0,0,8.07,6.654l.273,0a8.228,8.228,0,0,0,6.913-4.242l13.446,1.784c3.332,8.344,11.038,14.206,20,14.206s16.659-5.858,19.992-14.2l13.471-1.787a8.05,8.05,0,0,0,6.92,4.24l.269,0a8.18,8.18,0,0,0,8.072-6.654C135.124,68.921,154.049,63.942,153.418,59.7ZM9.8,61.288c.011,0,.02,0,.031,0s.02.008.033.009l20.974,2.018a8.207,8.207,0,0,0-2.072,4.027,100.057,100.057,0,0,1-21.7-6.361C7.8,61.039,8.693,61.136,9.8,61.288ZM37,74.035l-.171,0a5.087,5.087,0,0,1-.219-10.171l1.4.135A5.083,5.083,0,0,1,37,74.035Zm7.995-4.142a8,8,0,0,0,.083-1.214,8.183,8.183,0,0,0-1.288-4.123L55.707,65.7a25.011,25.011,0,0,0,.722,5.706ZM77.457,85.78c-10.271,0-18.628-9.1-18.628-20.293s8.355-20.293,18.628-20.293S96.08,54.3,96.08,65.488,87.726,85.78,77.457,85.78ZM98.479,71.415a25.036,25.036,0,0,0,.722-5.708l11.95-1.15a7.628,7.628,0,0,0-1.208,5.337Zm19.629,2.622-.166,0a5.1,5.1,0,0,1-3.568-1.61A5.071,5.071,0,0,1,116.936,64l1.4-.135a5.086,5.086,0,0,1-.226,10.169Zm8.069-6.7a8.213,8.213,0,0,0-2.072-4.027l20.974-2.018c.011,0,.02-.008.033-.009a.21.21,0,0,0,.031,0c1.1-.152,2-.249,2.733-.31A99.94,99.94,0,0,1,126.177,67.339Z" transform="translate(-1.503 -9.686)" fill="#1f78f2"/>
    <path id="Path_5159" data-name="Path 5159" d="M43.786,75.536c-3.513-6.408-9.9-7.8-14.322-5.763A9.574,9.574,0,0,0,24.549,74.9a5.811,5.811,0,0,0-3.055,1.418,6.025,6.025,0,0,0-1.806,2.893,6.215,6.215,0,0,0-3.98,6.092c0,3.488,2.387,6.325,5.323,6.325H42.783c3.7,0,6.707-3.637,6.707-8.108C49.491,79.465,47.006,76.127,43.786,75.536Zm-1,12.959H21.031c-1.187,0-2.19-1.463-2.19-3.192s1-3.188,2.19-3.188h0A1.561,1.561,0,0,0,21.624,82a1.685,1.685,0,0,0,.182-.114,1.529,1.529,0,0,0,.307-.207,1.657,1.657,0,0,0,.147-.2.923.923,0,0,0,.258-.539,1.473,1.473,0,0,0,.074-.274,2.964,2.964,0,0,1,.979-2,2.754,2.754,0,0,1,2-.686,1.445,1.445,0,0,0,.163-.02,1.612,1.612,0,0,0,.326-.039,1.633,1.633,0,0,0,.529-.247,1.585,1.585,0,0,0,.218-.193,1.657,1.657,0,0,0,.185-.233,1.5,1.5,0,0,0,.136-.28,1.439,1.439,0,0,0,.075-.157,6.4,6.4,0,0,1,3.567-4.189c3.244-1.487,8.059-.23,10.6,5.042a1.5,1.5,0,0,0,.288.4c.027.027.056.044.085.069a1.573,1.573,0,0,0,.359.243c.047.022.091.042.139.061a1.544,1.544,0,0,0,.539.108h0c1.938,0,3.575,2.278,3.575,4.975S44.721,88.495,42.783,88.495Z" transform="translate(6.543 13.038)" fill="#1f78f2"/>
    <path id="Path_5160" data-name="Path 5160" d="M76.537,39.316H98.291c3.7,0,6.706-3.637,6.706-8.109,0-4.055-2.484-7.393-5.706-7.984-3.512-6.408-9.9-7.8-14.323-5.761a9.6,9.6,0,0,0-4.915,5.124A5.815,5.815,0,0,0,77,24.006a6.013,6.013,0,0,0-1.8,2.893,6.217,6.217,0,0,0-3.979,6.092C71.216,36.479,73.6,39.316,76.537,39.316Zm0-9.513h0a1.528,1.528,0,0,0,.594-.121,1.63,1.63,0,0,0,.183-.116,1.567,1.567,0,0,0,.3-.205,1.4,1.4,0,0,0,.147-.2,1.47,1.47,0,0,0,.19-.28,1.745,1.745,0,0,0,.07-.258,1.628,1.628,0,0,0,.074-.273,2.954,2.954,0,0,1,.979-2,2.722,2.722,0,0,1,2-.686,1.527,1.527,0,0,0,.168-.02,1.374,1.374,0,0,0,.3-.038,1.474,1.474,0,0,0,.293-.1,1.639,1.639,0,0,0,.244-.139,1.5,1.5,0,0,0,.23-.2,1.448,1.448,0,0,0,.318-.511,1.422,1.422,0,0,0,.077-.155,6.422,6.422,0,0,1,3.568-4.189c3.242-1.491,8.059-.233,10.6,5.039a1.467,1.467,0,0,0,.287.4.974.974,0,0,0,.088.072,1.517,1.517,0,0,0,.357.24,1.305,1.305,0,0,0,.143.063,1.563,1.563,0,0,0,.536.108h0c1.936,0,3.573,2.278,3.573,4.973s-1.637,4.976-3.573,4.976H76.537c-1.187,0-2.188-1.461-2.188-3.192S75.349,29.8,76.537,29.8Z" transform="translate(37.982 -16.592)" fill="#1f78f2"/>
  </g>
</svg>
