<svg xmlns="http://www.w3.org/2000/svg" width="217.086" height="199.859" viewBox="0 0 217.086 199.859">
  <g id="Group_14139" data-name="Group 14139" transform="translate(-163.672 -135.069)">
    <g id="Group_14134" data-name="Group 14134" transform="translate(163.672 306.816)">
      <path id="Path_5238" data-name="Path 5238" d="M187.559,226.038h3.989v27.8h-4.659V233.5l-7.542,9.831h-3.474l-7.58-9.831v20.333h-4.62v-27.8h3.987l9.95,12.833Z" transform="translate(-163.672 -226.038)" fill="#f4ede5"/>
      <path id="Path_5239" data-name="Path 5239" d="M202.795,242.167H185.186c.355,3.672,2.211,5.449,6.632,5.449,3.2,0,5.371-.868,5.726-3.079a1.779,1.779,0,0,0,.315-.67h4.62c-1.422,5.605-4.816,7.461-10.778,7.461-8.806,0-11.175-5.094-11.175-11.016,0-5.962,2.409-11.094,11.215-11.094S203.268,233.875,202.795,242.167Zm-17.649-3.514h13.108c-.2-3.75-1.933-5.685-6.476-5.685C187.2,232.968,185.384,234.862,185.146,238.653Z" transform="translate(-148.706 -223.215)" fill="#f4ede5"/>
      <path id="Path_5240" data-name="Path 5240" d="M211.8,226.059h4.618v27.717H211.8v-2.923c-1.461,2.33-3.831,3.16-6.555,3.16-6.989,0-11.213-3-11.213-10.9,0-7.856,4.144-10.739,11.213-10.739,2.685,0,5.094.514,6.555,2.843Zm-13.148,17.056c0,4.977,1.263,7.069,6.593,7.069,4.935,0,6.555-2.29,6.555-7.069,0-4.975-1.461-6.987-6.555-6.987C200.114,236.128,198.655,238.14,198.655,243.115Z" transform="translate(-136.711 -226.019)" fill="#f4ede5"/>
      <path id="Path_5241" data-name="Path 5241" d="M232.115,226.038v3.553h-9.831v24.243h-4.62V229.591h-9.87v-3.553Z" transform="translate(-124.493 -226.038)" fill="#f4ede5"/>
      <path id="Path_5242" data-name="Path 5242" d="M231.009,251.327c-7.463,0-11.254-3.553-11.254-11.056s3.791-11.054,11.254-11.054c7.422,0,11.213,3.553,11.213,11.054S238.431,251.327,231.009,251.327Zm0-18.438c-5.173,0-6.674,2.328-6.674,7.382,0,5.016,1.5,7.344,6.674,7.344,5.132,0,6.632-2.328,6.632-7.344C237.642,235.217,236.141,232.889,231.009,232.889Z" transform="translate(-113.872 -223.215)" fill="#f4ede5"/>
      <path id="Path_5243" data-name="Path 5243" d="M251.258,229.363h4.66v11.964c0,6.831-4.935,9.712-11.252,9.712-6.672,0-11.1-3.119-11.215-10.067l.042-11.609h4.618v11.924c0,4.225,2.568,5.923,6.555,5.923,3.672,0,6.515-1.975,6.515-5.843Z" transform="translate(-101.71 -223.086)" fill="#f4ede5"/>
      <path id="Path_5244" data-name="Path 5244" d="M260.123,233.148c-4.541,0-7.937.751-7.937,6.121v11.687h-4.62v-21.4h4.62v2.883c1.975-2.962,4.778-3.159,7.937-3.159Z" transform="translate(-89.177 -223.159)" fill="#f4ede5"/>
      <path id="Path_5245" data-name="Path 5245" d="M256.328,230.59V226.6h4.62v3.987Zm0,22.742V231.814h4.62v21.519Z" transform="translate(-81.396 -225.536)" fill="#f4ede5"/>
      <path id="Path_5246" data-name="Path 5246" d="M278.993,250.882c0-2.843.04-6.476.04-9.279,0-5.171-.593-8.528-6.593-8.528-5.054,0-6.476,2.645-6.476,7.384v10.423H261.3V229.363h4.66v2.962c1.737-2.409,4.067-2.923,6.476-2.923,6.2,0,11.173,2.605,11.173,9.4v12.083Z" transform="translate(-76.977 -223.086)" fill="#f4ede5"/>
    </g>
    <g id="Group_14137" data-name="Group 14137" transform="translate(372.102 305.794)">
      <g id="Group_14135" data-name="Group 14135">
        <path id="Path_5247" data-name="Path 5247" d="M278.4,234.153a4.328,4.328,0,1,1,4.329-4.329A4.333,4.333,0,0,1,278.4,234.153Zm0-7.92a3.592,3.592,0,1,0,3.593,3.591A3.594,3.594,0,0,0,278.4,226.233Z" transform="translate(-274.071 -225.497)" fill="#f4ede5"/>
      </g>
      <g id="Group_14136" data-name="Group 14136" transform="translate(2.724 2.16)">
        <path id="Path_5248" data-name="Path 5248" d="M278.935,230.779h-.706l-.6-1.542a3.041,3.041,0,0,1-.413.025c-.334.006-.676,0-1.012,0v1.518h-.689v-4.138h1.609c.948,0,1.737.136,1.737,1.289a1.244,1.244,0,0,1-.589,1.137ZM276.2,228.7h1.1c.566,0,.867-.153.867-.77,0-.742-.383-.731-.989-.731H276.2Z" transform="translate(-275.514 -226.641)" fill="#f4ede5"/>
      </g>
    </g>
    <g id="Group_14138" data-name="Group 14138" transform="translate(196.41 135.069)">
      <path id="Rectangle_801" data-name="Rectangle 801" d="M0,0H49.181a0,0,0,0,1,0,0V28.673A20.508,20.508,0,0,1,28.673,49.181H0a0,0,0,0,1,0,0V0A0,0,0,0,1,0,0Z" transform="translate(0 45.866)" fill="#f4ede5"/>
      <path id="Rectangle_802" data-name="Rectangle 802" d="M0,0H49.181a0,0,0,0,1,0,0V28.673A20.508,20.508,0,0,1,28.673,49.181H0a0,0,0,0,1,0,0V0A0,0,0,0,1,0,0Z" transform="translate(45.415)" fill="#f4ede5"/>
      <path id="Rectangle_803" data-name="Rectangle 803" d="M0,0H49.181a0,0,0,0,1,0,0V28.673A20.508,20.508,0,0,1,28.673,49.181H0a0,0,0,0,1,0,0V0A0,0,0,0,1,0,0Z" transform="translate(94.939 133.761) rotate(180)" fill="#76b8ff"/>
      <path id="Rectangle_804" data-name="Rectangle 804" d="M0,0H49.181a0,0,0,0,1,0,0V28.673A20.508,20.508,0,0,1,28.673,49.181H0a0,0,0,0,1,0,0V0A0,0,0,0,1,0,0Z" transform="translate(140.354 87.895) rotate(180)" fill="#76b8ff"/>
    </g>
  </g>
</svg>
