<svg xmlns="http://www.w3.org/2000/svg" width="359.398" height="95.341" viewBox="0 0 359.398 95.341">
  <g id="Group_14133" data-name="Group 14133" transform="translate(-260.449 -189.477)">
    <g id="Group_14129" data-name="Group 14129" transform="translate(385.267 217.071)">
      <path id="Path_5227" data-name="Path 5227" d="M262.786,349.173h4.286v29.871h-5.007V357.192l-8.1,10.566h-3.734l-8.147-10.566v21.853h-4.964V349.173H241.4l10.692,13.79Z" transform="translate(-237.115 -349.173)" fill="#fff"/>
      <path id="Path_5228" data-name="Path 5228" d="M290.634,368.671H271.709c.383,3.946,2.376,5.855,7.129,5.855,3.437,0,5.771-.933,6.152-3.309a1.887,1.887,0,0,0,.34-.721h4.964c-1.527,6.025-5.177,8.019-11.583,8.019-9.463,0-12.009-5.474-12.009-11.839,0-6.408,2.589-11.923,12.051-11.923S291.143,359.76,290.634,368.671Zm-18.966-3.777h14.087c-.212-4.03-2.079-6.11-6.959-6.11C273.872,358.784,271.922,360.821,271.667,364.894Z" transform="translate(-232.506 -348.304)" fill="#fff"/>
      <path id="Path_5229" data-name="Path 5229" d="M309.511,349.21h4.964V379h-4.964v-3.14c-1.57,2.5-4.116,3.4-7.043,3.4-7.511,0-12.051-3.225-12.051-11.712,0-8.444,4.456-11.541,12.051-11.541,2.885,0,5.474.55,7.043,3.054Zm-14.129,18.33c0,5.347,1.357,7.595,7.086,7.595,5.3,0,7.043-2.46,7.043-7.595,0-5.347-1.57-7.51-7.043-7.51C296.951,360.029,295.381,362.193,295.381,367.54Z" transform="translate(-228.811 -349.167)" fill="#fff"/>
      <path id="Path_5230" data-name="Path 5230" d="M340.708,349.173v3.818H330.143v26.054h-4.964V352.991H314.57v-3.818Z" transform="translate(-225.049 -349.173)" fill="#fff"/>
      <path id="Path_5231" data-name="Path 5231" d="M347.662,378.515c-8.02,0-12.094-3.819-12.094-11.882s4.074-11.88,12.094-11.88c7.976,0,12.049,3.819,12.049,11.88S355.638,378.515,347.662,378.515Zm0-19.816c-5.559,0-7.172,2.5-7.172,7.934,0,5.389,1.612,7.893,7.172,7.893,5.515,0,7.127-2.5,7.127-7.893C354.789,361.2,353.178,358.7,347.662,358.7Z" transform="translate(-221.777 -348.304)" fill="#fff"/>
      <path id="Path_5232" data-name="Path 5232" d="M378.748,355.01h5.007v12.857c0,7.34-5.3,10.438-12.093,10.438-7.171,0-11.923-3.353-12.05-10.819l.043-12.476h4.964v12.814c0,4.54,2.758,6.365,7.043,6.365,3.946,0,7-2.122,7-6.279Z" transform="translate(-218.032 -348.264)" fill="#fff"/>
      <path id="Path_5233" data-name="Path 5233" d="M397.884,359.022c-4.88,0-8.529.807-8.529,6.577v12.56H384.39v-23h4.965v3.1c2.121-3.183,5.134-3.4,8.529-3.4Z" transform="translate(-214.172 -348.287)" fill="#fff"/>
      <path id="Path_5234" data-name="Path 5234" d="M399.772,354.45v-4.286h4.964v4.286Zm0,24.44V355.765h4.964V378.89Z" transform="translate(-211.775 -349.019)" fill="#fff"/>
      <path id="Path_5235" data-name="Path 5235" d="M427.517,378.135c0-3.055.043-6.958.043-9.972,0-5.557-.636-9.164-7.085-9.164-5.432,0-6.96,2.843-6.96,7.934v11.2h-5.007V355.01h5.007v3.182c1.867-2.588,4.37-3.139,6.96-3.139,6.661,0,12.007,2.8,12.007,10.1v12.984Z" transform="translate(-210.414 -348.264)" fill="#fff"/>
    </g>
    <g id="Group_14132" data-name="Group 14132" transform="translate(607.336 211.215)">
      <g id="Group_14130" data-name="Group 14130" transform="translate(0 0)">
        <path id="Path_5236" data-name="Path 5236" d="M437.175,360.735a6.257,6.257,0,1,1,6.256-6.256A6.263,6.263,0,0,1,437.175,360.735Zm0-11.448a5.192,5.192,0,1,0,5.191,5.192A5.2,5.2,0,0,0,437.175,349.287Z" transform="translate(-430.919 -348.222)" fill="#fff"/>
      </g>
      <g id="Group_14131" data-name="Group 14131" transform="translate(3.939 3.123)">
        <path id="Path_5237" data-name="Path 5237" d="M438.4,356.213h-1.021l-.867-2.229a4.505,4.505,0,0,1-.6.034c-.485.009-.978,0-1.463,0v2.2h-.995v-5.982h2.323c1.37,0,2.511.2,2.511,1.864a1.792,1.792,0,0,1-.85,1.642Zm-3.949-3h1.592c.816,0,1.25-.221,1.25-1.115,0-1.073-.552-1.056-1.429-1.056h-1.413Z" transform="translate(-433.453 -350.231)" fill="#fff"/>
      </g>
    </g>
    <path id="Rectangle_797" data-name="Rectangle 797" d="M0,0H35.055a0,0,0,0,1,0,0V0A35.055,35.055,0,0,1,0,35.055H0a0,0,0,0,1,0,0V0A0,0,0,0,1,0,0Z" transform="translate(260.449 222.169)" fill="#fff"/>
    <path id="Rectangle_798" data-name="Rectangle 798" d="M0,0H35.055a0,0,0,0,1,0,0V0A35.055,35.055,0,0,1,0,35.055H0a0,0,0,0,1,0,0V0A0,0,0,0,1,0,0Z" transform="translate(292.82 189.477)" fill="#fff"/>
    <path id="Rectangle_799" data-name="Rectangle 799" d="M0,0H35.055a0,0,0,0,1,0,0V0A35.055,35.055,0,0,1,0,35.055H0a0,0,0,0,1,0,0V0A0,0,0,0,1,0,0Z" transform="translate(328.119 284.818) rotate(180)" fill="#fff"/>
    <path id="Rectangle_800" data-name="Rectangle 800" d="M0,0H35.055a0,0,0,0,1,0,0V0A35.055,35.055,0,0,1,0,35.055H0a0,0,0,0,1,0,0V0A0,0,0,0,1,0,0Z" transform="translate(360.489 252.126) rotate(-180)" fill="#fff"/>
  </g>
</svg>
