<svg xmlns="http://www.w3.org/2000/svg" width="975.357" height="608.724" viewBox="0 0 975.357 608.724">
  <path id="Path_5209" data-name="Path 5209" d="M270.937,155.957h84.184V-166.75H296.579L187.72,40.808,78.861-166.75H20.8V155.957H104.02V35l57.574,120.955H214.33L270.937,35.486ZM641.542-40.957H495.429V-92.726H650.735V-166.75H411.245V155.957h239.49V86.287H495.429V37.905H641.542ZM697.182-166.75V155.957H827.329c86.12,0,155.79-72.089,155.79-161.112,0-89.506-69.67-161.6-155.79-161.6Zm83.7,248.683V-92.726h31.932c48.382,0,86.6,39.673,86.6,87.571s-38.222,87.087-86.6,87.087ZM193,181.632H7.761V218.6H79.778v219.9h41.208V218.6H193Zm158.284-3.466c-75.869,0-136.332,58.923-136.332,132.1,0,72.788,60.464,131.711,136.332,131.711,74.328,0,134.022-58.923,134.022-131.711C485.309,237.09,425.616,178.166,351.288,178.166Zm0,39.282a92.814,92.814,0,0,1,0,185.628c-52.376,0-95.125-41.593-95.125-92.814S298.911,217.449,351.288,217.449Zm378.573-35.816H688.653V346.464c0,36.971-27.344,56.613-59.694,56.613-31.965,0-60.079-19.641-60.079-56.613V181.632H527.288V346.464c0,60.079,48.14,95.51,101.672,95.51,53.147,0,100.9-35.431,100.9-95.51Zm49.68,0V438.507h41.208V341.072h48.525l58.538,97.435h46.6l-63.16-101.672c33.891-8.088,58.538-34.661,58.538-72.4,0-51.606-33.891-82.8-77.024-82.8Zm41.208,124.394V218.6h61.234c26.573,0,46.6,16.175,46.6,45.829,0,26.188-20.8,41.593-46.6,41.593Z" transform="translate(-7.761 166.75)" fill="#ffa700"/>
</svg>
