<svg xmlns="http://www.w3.org/2000/svg" width="1924.823" height="1562.194" viewBox="0 0 1924.823 1562.194">
  <path id="Path_5214" data-name="Path 5214" d="M1549.435,3755.485l-71.515-67c344.907-368.123,511.559-640.092,495.327-808.352-5.521-57.229-32.963-102.935-83.895-139.728-96.769-69.905-321.7-110.1-475.264.092C1256.7,2853.42,1168.45,3189.915,1183.03,3286.68l.437,2.9.088,2.932c4.489,149.777-150.651,268.262-306.222,307.893-45.711,11.645-88.339,16.9-127.8,16.906-167.165.01-277.948-94.316-330.049-197.158l-.76-1.5-.656-1.549c-82.522-195.028-36.961-362.59,139.288-512.26,43.618-37.04,112.289-73.572,178.7-108.9,49.238-26.194,95.746-50.935,124.071-71.7l4.536-3.325,5.172-2.211c191.449-81.855,315.562-146.87,342.728-217.969,7.529-19.706,13.941-53.4-16.007-119.241-36.87-52.322-86.065-81.276-150.274-88.48-126.592-14.2-309.367,56.716-528.568,205.088-170.455,115.378-302.256,237.261-303.567,238.478l-66.7-71.8c21.513-19.99,511.677-471.494,866.819-471.494a384.625,384.625,0,0,1,42.878,2.329c94.277,10.56,169.167,55.594,222.589,133.85l2.245,3.288,1.684,3.608c36.25,77.638,42.747,140.983,20.446,199.349-39.593,103.623-167.951,175.457-390.765,270.967-33.79,23.927-81.2,49.149-131.261,75.78-61.817,32.885-125.739,66.89-161.291,97.081-142.708,121.188-177.642,243.942-113.133,397.8,91,177.314,287.343,142.909,345.483,128.1,131.592-33.523,233.013-124.321,232.5-207.573-18.022-137.037,84.709-503.1,271.313-637,193.021-138.5,466.544-88.935,589.783.092,74.05,53.494,115.789,124.066,124.055,209.757C2090.117,3071.016,1919.579,3360.426,1549.435,3755.485Z" transform="translate(-147.445 -2193.291)" fill="#204eb7"/>
</svg>
