<svg id="playstore" xmlns="http://www.w3.org/2000/svg" width="268.87" height="79.666" viewBox="0 0 268.87 79.666">
  <path id="Path_124" data-name="Path 124" d="M0,9.958A9.958,9.958,0,0,1,9.958,0H258.912a9.958,9.958,0,0,1,9.958,9.958V69.707a9.958,9.958,0,0,1-9.958,9.958H9.958A9.958,9.958,0,0,1,0,69.707Z"/>
  <path id="Path_125" data-name="Path 125" d="M98.082,27.694a8.47,8.47,0,1,0,8.5,8.47A8.35,8.35,0,0,0,98.082,27.694Zm0,13.607a4.9,4.9,0,0,1-4.78-5.135,4.792,4.792,0,1,1,9.56,0A4.9,4.9,0,0,1,98.082,41.3ZM79.531,27.694a8.47,8.47,0,1,0,8.5,8.47A8.35,8.35,0,0,0,79.531,27.694Zm0,13.607a4.9,4.9,0,0,1-4.78-5.135,4.792,4.792,0,1,1,9.56,0A4.9,4.9,0,0,1,79.531,41.3ZM57.468,30.3v3.593h8.6a7.489,7.489,0,0,1-1.958,4.523,8.8,8.8,0,0,1-6.642,2.631,9.563,9.563,0,0,1,0-19.124,9.161,9.161,0,0,1,6.481,2.567l2.535-2.535a12.537,12.537,0,0,0-9.016-3.625A13.339,13.339,0,0,0,44.12,31.481,13.339,13.339,0,0,0,57.468,44.635a12.026,12.026,0,0,0,9.175-3.69,11.877,11.877,0,0,0,3.113-8.407,11.617,11.617,0,0,0-.193-2.245h-12.1Zm90.237,2.79c-.705-1.892-2.856-5.391-7.252-5.391-4.364,0-7.99,3.434-7.99,8.47a8.29,8.29,0,0,0,8.407,8.47,8.43,8.43,0,0,0,7.06-3.754l-2.887-1.926A4.837,4.837,0,0,1,140.87,41.3a4.309,4.309,0,0,1-4.107-2.567l11.326-4.684ZM136.154,35.91a4.646,4.646,0,0,1,4.429-4.941,3.284,3.284,0,0,1,3.145,1.8Zm-9.207,8.214h3.72v-24.9h-3.72Zm-6.1-14.535h-.127a5.868,5.868,0,0,0-4.459-1.894,8.479,8.479,0,0,0,0,16.943,5.776,5.776,0,0,0,4.459-1.924h.127v1.219c0,3.24-1.733,4.973-4.523,4.973a4.686,4.686,0,0,1-4.268-3.015l-3.24,1.348a8.072,8.072,0,0,0,7.509,5c4.364,0,8.054-2.567,8.054-8.825V28.21H120.85v1.378ZM116.582,41.3a4.862,4.862,0,0,1-4.716-5.1,4.9,4.9,0,0,1,4.716-5.166c2.533,0,4.523,2.181,4.523,5.166C121.1,39.15,119.115,41.3,116.582,41.3Zm48.557-22.075h-8.9v24.9h3.715V34.691h5.188c4.118,0,8.17-2.982,8.17-7.732S169.259,19.226,165.139,19.226Zm.1,12H159.95V22.691h5.286a4.268,4.268,0,1,1,0,8.534ZM188.2,27.65c-2.69,0-5.477,1.185-6.631,3.812l3.3,1.376a3.526,3.526,0,0,1,3.4-1.826c1.923,0,3.876,1.153,3.907,3.2v.257a8.218,8.218,0,0,0-3.874-.96c-3.555,0-7.177,1.954-7.177,5.6,0,3.332,2.916,5.477,6.182,5.477a5.243,5.243,0,0,0,4.741-2.436h.126V44.08h3.591V34.534C195.764,30.116,192.46,27.65,188.2,27.65Zm-.45,13.645c-1.215,0-2.914-.61-2.914-2.115,0-1.922,2.116-2.659,3.943-2.659a6.618,6.618,0,0,1,3.392.832A4.5,4.5,0,0,1,187.753,41.3Zm21.078-13.1L204.57,38.989h-.128l-4.421-10.795h-4l6.631,15.087-3.779,8.393h3.874l10.219-23.479ZM175.358,44.123h3.715v-24.9h-3.715Z" transform="translate(37.62 15.626)" fill="#fff"/>
  <path id="Path_129" data-name="Path 129" d="M64.433,19.475V7.525h1.536v11.95Z" transform="translate(54.941 6.416)" fill="#fff"/>
  <path id="Path_132" data-name="Path 132" d="M81.243,19.475V7.525h1.868l5.808,9.295h.066l-.066-2.3V7.525h1.535v11.95h-1.6L82.775,9.728h-.066l.066,2.3v7.445Z" transform="translate(69.274 6.416)" fill="#fff"/>
  <path id="Path_133" data-name="Path 133" d="M56.535,14.106A5.394,5.394,0,0,1,55.051,18.1a5.792,5.792,0,0,1-4.39,1.769,6.152,6.152,0,0,1-6.208-6.24,6.155,6.155,0,0,1,6.208-6.242,6.168,6.168,0,0,1,2.452.5,4.918,4.918,0,0,1,1.868,1.334l-1.05,1.052A4.032,4.032,0,0,0,50.659,8.85a4.618,4.618,0,0,0-4.64,4.772A4.7,4.7,0,0,0,54,17.059a3.763,3.763,0,0,0,1-2.42h-4.34V13.2h5.79A4.8,4.8,0,0,1,56.535,14.106Z" transform="translate(37.905 6.295)" fill="none" stroke="#000" stroke-miterlimit="10" stroke-width="0.215"/>
  <path id="Path_134" data-name="Path 134" d="M59.141,8.993H53.7v3.788h4.907v1.436H53.7v3.788h5.441v1.47H52.165V7.525h6.977Z" transform="translate(44.48 6.416)" fill="none" stroke="#000" stroke-miterlimit="10" stroke-width="0.215"/>
  <path id="Path_135" data-name="Path 135" d="M61.668,19.475H60.132V8.993H56.794V7.525h8.211V8.993H61.668Z" transform="translate(48.428 6.416)" fill="none" stroke="#000" stroke-miterlimit="10" stroke-width="0.215"/>
  <path id="Path_137" data-name="Path 137" d="M71.181,19.475H69.645V8.993H66.307V7.525h8.211V8.993H71.181Z" transform="translate(56.539 6.416)" fill="none" stroke="#000" stroke-miterlimit="10" stroke-width="0.215"/>
  <path id="Path_138" data-name="Path 138" d="M83.972,18.055a6.205,6.205,0,0,1-8.761,0,6.111,6.111,0,0,1-1.761-4.431,6.111,6.111,0,0,1,1.761-4.431,6.181,6.181,0,0,1,8.753.008,6.109,6.109,0,0,1,1.769,4.423A6.119,6.119,0,0,1,83.972,18.055Zm-7.628-1a4.6,4.6,0,0,0,6.493,0,4.68,4.68,0,0,0,1.329-3.43,4.68,4.68,0,0,0-1.329-3.43,4.6,4.6,0,0,0-6.493,0,4.687,4.687,0,0,0-1.326,3.43A4.687,4.687,0,0,0,76.344,17.053Z" transform="translate(62.63 6.293)" fill="none" stroke="#000" stroke-miterlimit="10" stroke-width="0.215"/>
  <g id="Group_14117" data-name="Group 14117">
    <path id="Path_126" data-name="Path 126" d="M56.535,14.106A5.394,5.394,0,0,1,55.051,18.1a5.792,5.792,0,0,1-4.39,1.769,6.152,6.152,0,0,1-6.208-6.24,6.155,6.155,0,0,1,6.208-6.242,6.168,6.168,0,0,1,2.452.5,4.918,4.918,0,0,1,1.868,1.334l-1.05,1.052A4.032,4.032,0,0,0,50.659,8.85a4.618,4.618,0,0,0-4.64,4.772A4.7,4.7,0,0,0,54,17.059a3.763,3.763,0,0,0,1-2.42h-4.34V13.2h5.79A4.8,4.8,0,0,1,56.535,14.106Z" transform="translate(37.905 6.294)" fill="#fff"/>
    <path id="Path_127" data-name="Path 127" d="M59.141,8.993H53.7v3.788h4.907v1.436H53.7v3.788h5.441v1.47H52.165V7.525h6.977Z" transform="translate(44.48 6.417)" fill="#fff"/>
    <path id="Path_128" data-name="Path 128" d="M61.668,19.475H60.132V8.993H56.794V7.525h8.211V8.993H61.668Z" transform="translate(48.428 6.417)" fill="#fff"/>
    <path id="Path_130" data-name="Path 130" d="M71.181,19.475H69.645V8.993H66.307V7.525h8.211V8.993H71.181Z" transform="translate(56.539 6.417)" fill="#fff"/>
    <path id="Path_131" data-name="Path 131" d="M83.972,18.055a6.205,6.205,0,0,1-8.761,0,6.111,6.111,0,0,1-1.761-4.431,6.111,6.111,0,0,1,1.761-4.431,6.181,6.181,0,0,1,8.753.008,6.109,6.109,0,0,1,1.769,4.423A6.119,6.119,0,0,1,83.972,18.055Zm-7.628-1a4.6,4.6,0,0,0,6.493,0,4.68,4.68,0,0,0,1.329-3.43,4.68,4.68,0,0,0-1.329-3.43,4.6,4.6,0,0,0-6.493,0,4.687,4.687,0,0,0-1.326,3.43A4.687,4.687,0,0,0,76.344,17.053Z" transform="translate(62.63 6.293)" fill="#fff"/>
    <path id="Path_136" data-name="Path 136" d="M64.433,19.475V7.525h1.536v11.95Z" transform="translate(54.941 6.417)" fill="none"/>
    <path id="Path_139" data-name="Path 139" d="M81.243,19.475V7.525h1.868l5.808,9.295h.066l-.066-2.3V7.525h1.535v11.95h-1.6L82.775,9.728h-.066l.066,2.3v7.445Z" transform="translate(69.274 6.417)" fill="none"/>
  </g>
  <path id="Path_140" data-name="Path 140" d="M11.086,9.32a4.811,4.811,0,0,0-.365,1.945V55.313a4.807,4.807,0,0,0,.366,1.946L35.054,33.288Zm1.384,49.371a3.747,3.747,0,0,0,3.311-.457l28.2-16.022L36.462,34.7Zm33.3-17.5,8.846-5.026c2.782-1.583,2.782-4.171,0-5.752l-8.85-5.029-7.9,7.9Zm-1.8-16.827L15.782,8.346a3.741,3.741,0,0,0-3.311-.457L36.462,31.88Z" transform="translate(9.142 6.546)" fill="#66be68" fill-rule="evenodd"/>
</svg>
