<svg xmlns="http://www.w3.org/2000/svg" width="42.254" height="46.701" viewBox="0 0 42.254 46.701">
  <g id="noun-share-1191730" transform="translate(-8.996 -8.639)">
    <path id="Path_12" data-name="Path 12" d="M43.25,39.34a8,8,0,1,0,8,8A8,8,0,0,0,43.25,39.34Zm0,12a4,4,0,1,1,4-4A4,4,0,0,1,43.25,51.34Z" fill="#404040"/>
    <path id="Path_13" data-name="Path 13" d="M31.79,39.11,24.45,34.9a7.89,7.89,0,0,0,0-5.79l12.7-7.29A8,8,0,1,0,35.4,18.2L22.1,25.84a8,8,0,1,0,0,12.32l7.7,4.42a2,2,0,1,0,2-3.47ZM43.25,12.66a4,4,0,1,1-4,4A4,4,0,0,1,43.25,12.66ZM13,32a4,4,0,1,1,4,4A4,4,0,0,1,13,32Z" fill="#404040"/>
  </g>
</svg>
