<svg xmlns="http://www.w3.org/2000/svg" xmlns:xlink="http://www.w3.org/1999/xlink" width="72" height="72" viewBox="0 0 72 72">
  <defs>
    <clipPath id="clip-path">
      <circle id="Ellipse_32" data-name="Ellipse 32" cx="36" cy="36" r="36" transform="translate(6529 161)" fill="#fff"/>
    </clipPath>
  </defs>
  <g id="Mask_Group_21" data-name="Mask Group 21" transform="translate(-6529 -161)" clip-path="url(#clip-path)">
    <g id="Group_14115" data-name="Group 14115" transform="translate(5997.445 -92.621)">
      <g id="Group_14114" data-name="Group 14114">
        <path id="Path_5206" data-name="Path 5206" d="M542.587,329.559c-4.327,0-8.659-.112-12.981.054-1.742.067-2.056-.321-2.051-2.052q.113-37.945,0-75.892c-.005-1.731.318-2.054,2.049-2.048q37.952.111,75.9,0c1.731-.006,2.054.317,2.049,2.048q-.113,37.945,0,75.892c.005,1.731-.308,2.119-2.051,2.052-4.321-.166-8.653-.054-12.981-.054.038-4.478-.3-9,.2-13.424.731-6.459-2.609-10.268-7.866-12.351-12.25-4.854-24.545-4.991-36.487,1.253a10.059,10.059,0,0,0-5.847,10.091C542.737,319.93,542.582,324.748,542.587,329.559Zm25.147-63.9c-7.631-.119-14.867,6.741-15.1,14.313-.247,8.1,6.955,15.528,14.988,15.467,7.89-.059,14.8-7.088,14.866-15.11C582.546,272.874,575.406,265.776,567.734,265.656Z" fill="#fff"/>
        <path id="Path_5207" data-name="Path 5207" d="M542.587,329.559c-.005-4.811.15-9.629-.062-14.431a10.059,10.059,0,0,1,5.847-10.091c11.942-6.244,24.237-6.107,36.487-1.253,5.257,2.083,8.6,5.892,7.866,12.351-.5,4.425-.164,8.946-.2,13.424Z" fill="#98d7f9"/>
        <path id="Path_5208" data-name="Path 5208" d="M567.734,265.656c7.672.12,14.812,7.218,14.756,14.67-.061,8.022-6.976,15.051-14.866,15.11-8.033.061-15.235-7.371-14.988-15.467C552.867,272.4,560.1,265.537,567.734,265.656Z" fill="#98d7f9"/>
      </g>
    </g>
  </g>
</svg>
